<mxfile host="app.diagrams.net" modified="2023-09-26T16:24:32.650Z" agent="Mozilla/5.0 (Macintosh; Intel Mac OS X 10_15_7) AppleWebKit/537.36 (KHTML, like Gecko) Chrome/117.0.0.0 Safari/537.36" version="21.8.2" etag="0MuSmrl3tlFq2lwRz3sP" type="github">
  <diagram name="Page-1" id="JCSIFYGg1PnjnM4VtA95">
    <mxGraphModel>
      <root>
        <mxCell id="0" />
        <mxCell id="1" parent="0" />
      </root>
    </mxGraphModel>
  </diagram>
</mxfile>
